#!OML:ASF I:\Actors\actors\Patient Classification 2\Patient 1\Session 1\actor1.ASF
:FULLY-SPECIFIED
:DEGREES
541
root -0.620062 18.708 5.64701 2.41337 -0.489754 -1.35236
lowerback -0.00583474 2.48707 -1.81672
upperback -1.29189 3.283 -1.80496
thorax -1.31669 1.65012 -0.870393
lowerneck -13.5204 -2.41896 -2.50508
upperneck 37.7843 -3.50841 1.81399
head 15.6826 -1.57147 0.632009
rclavicle -8.51047e-016 -7.15625e-015
rhumerus -35.9361 32.723 -96.7098
rradius 106.867
rwrist 3.73825
rhand -4.05185 -57.5454
rfingers 7.12502
rthumb 21.7042 273.651
lclavicle -8.51047e-016 -7.15625e-015
lhumerus -33.2439 -26.6456 100.376
lradius 100.011
lwrist 63.0891
lhand -10.2681 -4.51261
lfingers 7.12502
lthumb 15.7254 24.8685
rfemur 0 0 0
rtibia 0
rfoot 0 0
rtoes 0
lfemur -5.13392 -8.1181 -13.2382
ltibia 21.3797
lfoot -24.2934 15.7304
ltoes -54.2416
542
root -0.620925 18.7086 5.64391 2.42155 -0.562918 -1.31209
lowerback 0.0438795 2.4912 -1.91629
upperback -1.33332 3.28454 -1.84809
thorax -1.39023 1.65209 -0.862967
lowerneck -13.4787 -2.41199 -2.50114
upperneck 37.847 -3.49732 1.80313
head 15.7035 -1.56838 0.629139
rclavicle -3.926e-015 -1.59028e-014
rhumerus -36.2938 32.7025 -97.0676
rradius 107.095
rwrist 4.91977
rhand -3.19589 -57.5632
rfingers 7.12502
rthumb 22.526 273.731
lclavicle -3.926e-015 -1.59028e-014
lhumerus -33.3589 -26.5285 100.349
lradius 100.114
lwrist 63.3341
lhand -10.046 -4.57624
lfingers 7.12502
lthumb 15.9393 24.7879
rfemur 0 0 0
rtibia 0
rfoot 0 0
rtoes 0
lfemur -5.12281 -8.15956 -13.2886
ltibia 21.3551
lfoot -24.2919 15.8289
ltoes -54.216
543
root -0.62149 18.7087 5.64241 2.43737 -0.636567 -1.30265
lowerback 0.0206367 2.5017 -1.97384
upperback -1.34616 3.29798 -1.88851
thorax -1.39132 1.65924 -0.87177
lowerneck -13.4412 -2.41351 -2.47251
upperneck 37.8871 -3.49831 1.77218
head 15.7131 -1.5696 0.611049
rclavicle -2.22577e-014 -8.74653e-015
rhumerus -36.5717 32.7139 -97.4676
rradius 107.12
rwrist 6.34522
rhand -3.69705 -57.0976
rfingers 7.12502
rthumb 22.0449 274.139
lclavicle -2.22577e-014 -8.74653e-015
lhumerus -33.4078 -26.4505 100.313
lradius 100.176
lwrist 63.5872
lhand -9.83523 -4.6466
lfingers 7.12502
lthumb 16.1423 24.7012
rfemur 0 0 0
rtibia 0
rfoot 0 0
rtoes 0
lfemur -5.11084 -8.14775 -13.3097
ltibia 21.329
lfoot -24.2277 15.9347
ltoes -54.2941
544
root -0.622794 18.7084 5.64095 2.44513 -0.690289 -1.32234
lowerback -0.00186094 2.5196 -1.9994
upperback -1.36482 3.32142 -1.92708
thorax -1.39706 1.67108 -0.896808
lowerneck -13.4058 -2.41645 -2.43303
upperneck 37.9598 -3.52092 1.78141
head 15.7413 -1.5724 0.604731
rclavicle 3.93159e-014 1.66979e-014
rhumerus -36.8511 32.6923 -97.9685
rradius 106.924
rwrist 7.50719
rhand -4.59064 -56.6204
rfingers 7.12502
rthumb 21.1867 274.517
lclavicle 3.93159e-014 1.66979e-014
lhumerus -33.4495 -26.4077 100.308
lradius 100.196
lwrist 63.7438
lhand -9.58528 -4.73111
lfingers 7.12502
lthumb 16.383 24.597
rfemur 0 0 0
rtibia 0
rfoot 0 0
rtoes 0
lfemur -5.08912 -8.18831 -13.2999
ltibia 21.3051
lfoot -24.2273 16.0326
ltoes -54.2696
545
root -0.624587 18.7094 5.63859 2.47015 -0.772524 -1.35604
lowerback -0.0221592 2.55654 -1.99031
upperback -1.39973 3.37005 -1.96431
thorax -1.41877 1.69525 -0.940672
lowerneck -13.3505 -2.4388 -2.3626
upperneck 38.0023 -3.56003 1.73358
head 15.7475 -1.58582 0.565691
rclavicle -8.65335e-015 7.95139e-016
rhumerus -37.1162 32.6765 -98.5319
rradius 106.566
rwrist 7.94624
rhand -5.03132 -56.4334
rfingers 7.12502
rthumb 20.7633 274.657
lclavicle -8.65335e-015 7.95139e-016
lhumerus -33.4635 -26.4517 100.35
lradius 100.23
lwrist 63.7841
lhand -9.49383 -4.66901
lfingers 7.12502
lthumb 16.471 24.6518
rfemur 0 0 0
rtibia 0
rfoot 0 0
rtoes 0
lfemur -5.08457 -8.30452 -13.2719
ltibia 21.2774
lfoot -24.3135 16.1716
ltoes -54.1002
546
root -0.625895 18.7104 5.63445 2.51038 -0.876699 -1.39189
lowerback -0.0875799 2.57859 -1.92988
upperback -1.40006 3.40158 -2.01424
thorax -1.37583 1.70987 -1.02233
lowerneck -13.3161 -2.45711 -2.20702
upperneck 37.9804 -3.5765 1.57844
head 15.7201 -1.59281 0.468777
rclavicle 2.27981e-014 5.56597e-015
rhumerus -37.24 32.7847 -99.1375
rradius 106.055
rwrist 8.21129
rhand -5.58271 -56.2576
rfingers 7.12502
rthumb 20.2335 274.776
lclavicle 2.27981e-014 5.56597e-015
lhumerus -33.3515 -26.5593 100.351
lradius 100.233
lwrist 63.7886
lhand -9.66996 -4.63941
lfingers 7.12502
lthumb 16.3014 24.6954
rfemur 0 0 0
rtibia 0
rfoot 0 0
rtoes 0
lfemur -5.10659 -8.35464 -13.2358
ltibia 21.2442
lfoot -24.36 16.3001
ltoes -54.0448
547
root -0.630411 18.709 5.6318 2.47654 -0.930496 -1.40717
lowerback 0.104813 2.5807 -2.13677
upperback -1.50469 3.39406 -1.92147
thorax -1.60895 1.71039 -0.825939
lowerneck -13.2601 -2.48011 -2.17289
upperneck 38.0842 -3.56547 1.42248
head 15.7537 -1.60506 0.398324
rclavicle -1.56978e-014 7.95139e-016
rhumerus -37.6127 32.9638 -99.7595
rradius 105.447
rwrist 8.89011
rhand -5.84519 -56.2272
rfingers 7.12502
rthumb 19.9812 274.78
lclavicle -1.56978e-014 7.95139e-016
lhumerus -33.4507 -26.5305 100.651
lradius 100.156
lwrist 63.7308
lhand -9.83034 -4.80063
lfingers 7.12502
lthumb 16.147 24.5468
rfemur 0 0 0
rtibia 0
rfoot 0 0
rtoes 0
lfemur -5.05418 -8.29667 -13.2078
ltibia 21.2112
lfoot -24.3283 16.3152
ltoes -54.1069
548
root -0.638177 18.7069 5.63249 2.39157 -0.960641 -1.39282
lowerback 0.201734 2.58065 -2.33324
upperback -1.52072 3.38837 -1.87461
thorax -1.6942 1.71086 -0.674468
lowerneck -13.3192 -2.50437 -2.24823
upperneck 38.1903 -3.59859 1.46606
head 15.8263 -1.623 0.423918
rclavicle -6.28459e-014 4.77083e-015
rhumerus -37.7847 33.0625 -100.333
rradius 104.678
rwrist 9.78092
rhand -6.49428 -56.215
rfingers 7.12502
rthumb 19.3571 274.728
lclavicle -6.28459e-014 4.77083e-015
lhumerus -33.5476 -26.451 100.874
lradius 100.099
lwrist 63.5686
lhand -9.76234 -4.85829
lfingers 7.12502
lthumb 16.2125 24.4838
rfemur 0 0 0
rtibia 0
rfoot 0 0
rtoes 0
lfemur -4.93277 -8.20543 -13.2046
ltibia 21.1768
lfoot -24.2667 16.3011
ltoes -54.2229
549
root -0.644563 18.7062 5.63213 2.35992 -1.03039 -1.38709
lowerback 0.250847 2.60312 -2.55326
upperback -1.54597 3.41418 -1.78819
thorax -1.76625 1.72787 -0.468058
lowerneck -13.407 -2.54834 -2.44409
upperneck 38.2773 -3.63486 1.54091
head 15.9009 -1.65507 0.483613
rclavicle 1.06299e-014 -3.26007e-014
rhumerus -37.8693 33.173 -100.684
rradius 103.887
rwrist 10.196
rhand -7.49045 -56.0709
rfingers 7.12502
rthumb 18.3991 274.779
lclavicle 1.06299e-014 -3.26007e-014
lhumerus -33.7428 -26.2818 101.238
lradius 100.057
lwrist 62.9417
lhand -9.75393 -4.97537
lfingers 7.12502
lthumb 16.2206 24.366
rfemur 0 0 0
rtibia 0
rfoot 0 0
rtoes 0
lfemur -4.8723 -8.11724 -13.1956
ltibia 21.145
lfoot -24.2134 16.3268
ltoes -54.3122
550
root -0.649502 18.7061 5.62904 2.33476 -1.12043 -1.42758
lowerback 0.24018 2.61601 -2.60542
upperback -1.52264 3.43206 -1.76645
thorax -1.74097 1.73735 -0.415977
lowerneck -13.4678 -2.56587 -2.50636
upperneck 38.2466 -3.6653 1.60135
head 15.9045 -1.66851 0.514543
rclavicle -2.13603e-014 8.74653e-015
rhumerus -37.7584 33.3388 -100.908
rradius 103.23
rwrist 9.82063
rhand -7.43508 -56.0382
rfingers 7.12502
rthumb 18.4523 274.817
lclavicle -2.13603e-014 8.74653e-015
lhumerus -33.7737 -26.2518 101.41
lradius 99.9251
lwrist 62.089
lhand -10.0811 -5.2902
lfingers 7.12502
lthumb 15.9055 24.0766
rfemur 0 0 0
rtibia 0
rfoot 0 0
rtoes 0
lfemur -4.82693 -8.06393 -13.1433
ltibia 21.1261
lfoot -24.2049 16.3448
ltoes -54.2948
551
root -0.653163 18.7058 5.62506 2.2716 -1.1904 -1.45947
lowerback 0.173035 2.62348 -2.48102
upperback -1.41939 3.44779 -1.85847
thorax -1.5843 1.74134 -0.572288
lowerneck -13.5687 -2.56727 -2.45567
upperneck 38.1505 -3.73314 1.73421
head 15.8843 -1.6713 0.549498
rclavicle -2.11923e-014 -1.59028e-015
rhumerus -37.4188 33.4844 -101.011
rradius 102.762
rwrist 8.82652
rhand -7.27852 -56.0076
rfingers 7.12502
rthumb 18.6029 274.862
lclavicle -2.11923e-014 -1.59028e-015
lhumerus -33.6301 -26.3813 101.259
lradius 99.7626
lwrist 61.7829
lhand -10.5577 -5.47709
lfingers 7.12502
lthumb 15.4465 23.9257
rfemur 0 0 0
rtibia 0
rfoot 0 0
rtoes 0
lfemur -4.7445 -7.99073 -13.1035
ltibia 21.1195
lfoot -24.183 16.3152
ltoes -54.267
552
root -0.655205 18.705 5.62111 2.19921 -1.24042 -1.45832
lowerback 0.254804 2.65287 -2.58388
upperback -1.40067 3.48373 -1.80816
thorax -1.62064 1.761 -0.468212
lowerneck -13.6614 -2.60359 -2.52718
upperneck 38.1449 -3.7909 1.8005
head 15.9099 -1.69562 0.579593
rclavicle -2.9327e-014 1.19271e-014
rhumerus -37.2302 33.6524 -100.757
rradius 102.539
rwrist 7.26302
rhand -7.3082 -56.0634
rfingers 7.12502
rthumb 18.5744 274.803
lclavicle -2.9327e-014 1.19271e-014
lhumerus -33.6614 -26.3746 101.333
lradius 99.6384
lwrist 62.0775
lhand -10.968 -5.47734
lfingers 7.12502
lthumb 15.0513 23.9555
rfemur 0 0 0
rtibia 0
rfoot 0 0
rtoes 0
lfemur -4.66665 -7.88282 -13.1041
ltibia 21.1192
lfoot -24.1395 16.2786
ltoes -54.2945
553
root -0.656444 18.7041 5.61765 2.14084 -1.26871 -1.47964
lowerback 0.448584 2.67205 -2.8327
upperback -1.47149 3.49862 -1.6277
thorax -1.8288 1.77494 -0.15896
lowerneck -13.6518 -2.63182 -2.65883
upperneck 38.143 -3.79066 1.79443
head 15.9103 -1.71505 0.600645
rclavicle -4.96877e-015 -2.62396e-014
rhumerus -37.1422 33.9988 -100.144
rradius 102.521
rwrist 4.65808
rhand -6.98083 -56.4305
rfingers 7.12502
rthumb 18.8893 274.467
lclavicle -4.96877e-015 -2.62396e-014
lhumerus -33.8795 -26.2382 101.589
lradius 99.5958
lwrist 62.6422
lhand -11.2433 -5.57589
lfingers 7.12502
lthumb 14.7861 23.8766
rfemur 0 0 0
rtibia 0
rfoot 0 0
rtoes 0
lfemur -4.60782 -7.91033 -13.0942
ltibia 21.117
lfoot -24.1926 16.3267
ltoes -54.3006
554
root -0.656853 18.7041 5.61518 2.11513 -1.25131 -1.50256
lowerback 0.434367 2.65489 -2.84135
upperback -1.44102 3.4775 -1.59905
thorax -1.79139 1.76421 -0.122606
lowerneck -13.6489 -2.61149 -2.65478
upperneck 38.0227 -3.79396 1.88342
head 15.8506 -1.70409 0.63749
rclavicle 3.1137e-014 1.90833e-014
rhumerus -36.7331 34.4759 -99.3487
rradius 102.629
rwrist 0.445925
rhand -6.77685 -57.112
rfingers 7.12502
rthumb 19.0854 273.804
lclavicle 3.1137e-014 1.90833e-014
lhumerus -33.9009 -26.2424 101.484
lradius 99.6529
lwrist 63.2305
lhand -11.4461 -5.75843
lfingers 7.12502
lthumb 14.5907 23.7084
rfemur 0 0 0
rtibia 0
rfoot 0 0
rtoes 0
lfemur -4.58186 -7.99928 -13.0796
ltibia 21.1126
lfoot -24.2615 16.3588
ltoes -54.2426
555
root -0.656365 18.7047 5.61143 2.12076 -1.17781 -1.47651
lowerback 0.184609 2.60431 -2.62569
upperback -1.28318 3.42517 -1.77071
thorax -1.46468 1.73071 -0.398099
lowerneck -13.661 -2.58084 -2.42754
upperneck 37.7891 -3.85126 1.97786
head 15.7329 -1.68412 0.626757
rclavicle 2.99916e-014 -6.36111e-015
rhumerus -35.9456 34.9389 -98.4139
rradius 102.837
rwrist -5.26003
rhand -6.67779 -58.105
rfingers 7.12502
rthumb 19.1807 272.821
lclavicle 2.99916e-014 -6.36111e-015
lhumerus -33.6008 -26.4249 100.928
lradius 99.7807
lwrist 63.662
lhand -11.6575 -5.85923
lfingers 7.12502
lthumb 14.387 23.6222
rfemur 0 0 0
rtibia 0
rfoot 0 0
rtoes 0
lfemur -4.60768 -7.99356 -13.0976
ltibia 21.1013
lfoot -24.2048 16.289
ltoes -54.2208
556
root -0.654621 18.7061 5.60536 2.17642 -1.09536 -1.4519
lowerback 0.318934 2.56496 -2.43727
upperback -1.4263 3.36341 -1.93521
thorax -1.6653 1.6986 -0.681094
lowerneck -13.46 -2.58597 -2.23711
upperneck 37.7238 -3.95369 2.05867
head 15.6518 -1.69204 0.612256
rclavicle -2.06674e-014 2.8625e-014
rhumerus -35.5967 35.3052 -97.5277
rradius 103.101
rwrist -11.5236
rhand -6.47237 -59.2755
rfingers 7.12502
rthumb 19.3782 271.67
lclavicle -2.06674e-014 2.8625e-014
lhumerus -33.7303 -26.5295 100.541
lradius 100.009
lwrist 63.818
lhand -11.8836 -5.7874
lfingers 7.12502
lthumb 14.1692 23.7094
rfemur 0 0 0
rtibia 0
rfoot 0 0
rtoes 0
lfemur -4.70544 -7.95866 -13.104
ltibia 21.0719
lfoot -24.0711 16.2419
ltoes -54.3196
